<svg xmlns="http://www.w3.org/2000/svg" width="205.803" height="203.446" viewBox="0 0 205.803 203.446">
  <path id="Icon_simple-adobephotoshop" data-name="Icon simple-adobephotoshop" d="M0,1.25V204.7H205.8V1.25ZM8.575,9.944H197.228V196H8.575Zm41.161,38.95c0-.583,1.2-1.009,1.921-1.009,5.522-.287,13.617-.435,22.107-.435,23.77,0,33.014,13.215,33.014,30.134,0,22.083-15.8,31.56-35.175,31.56-3.259,0-4.373-.148-6.646-.148v33.4c0,.722-.283,1.009-.986,1.009H50.73c-.712,0-.986-.261-.986-.982V48.895ZM64.957,95.079c1.972.139,3.533.139,6.946.139,10.033,0,19.466-3.582,19.466-17.354,0-11.042-6.74-16.641-18.2-16.641-3.4,0-6.646.139-8.206.287V95.1ZM138.763,84.75c-6.792,0-9.055,3.443-9.055,6.312,0,3.156,1.544,5.3,10.607,10.042C153.761,107.712,158,114.015,158,123.335c0,13.911-10.462,21.388-24.611,21.388-7.512,0-13.892-1.591-17.579-3.739-.557-.287-.686-.713-.686-1.435V126.8c0-.869.412-1.156.978-.73a31.275,31.275,0,0,0,17.253,5.164c6.792,0,9.621-2.869,9.621-6.747,0-3.156-1.972-5.886-10.607-10.477-12.177-5.912-17.27-11.911-17.27-21.97,0-11.19,8.627-20.519,23.624-20.519,7.375,0,12.554,1.148,15.384,2.434a1.9,1.9,0,0,1,.858,1.721V87.584c0,.722-.429,1.156-1.286.869a30.375,30.375,0,0,0-14.946-3.739Z" transform="translate(0 -1.25)"/>
</svg>
