<svg xmlns="http://www.w3.org/2000/svg" width="183.498" height="170.879" viewBox="0 0 183.498 170.879">
  <path id="Icon_simple-adobexd" data-name="Icon simple-adobexd" d="M151,1.25H32.495C14.527,1.25,0,15.125,0,32.286V141.093c0,17.161,14.527,31.036,32.495,31.036H151c17.968,0,32.495-13.875,32.495-31.036V32.286C183.5,15.125,168.971,1.25,151,1.25Zm24.772,137a25.86,25.86,0,0,1-8.059,18.78,28.37,28.37,0,0,1-19.619,7.8H35.4c-15.292,0-27.754-11.9-27.754-26.508V35.061C7.646,20.456,20.108,8.553,35.4,8.553H148.022c15.328,0,27.754,11.868,27.754,26.508ZM72.558,81.213,93.966,120.5c.382.584.153,1.168-.459,1.168H80.2a1.507,1.507,0,0,1-1.606-.949c-4.893-9.639-9.863-19.279-14.986-29.648H63.46c-4.587,9.785-9.634,20.082-14.527,29.721a1.479,1.479,0,0,1-1.376.8H34.941c-.765,0-.841-.584-.459-1.022L55.432,82.454,35.171,43.9a.589.589,0,0,1,.459-1.022H48.78c.765,0,1.07.146,1.376.8,4.817,9.639,9.71,19.571,14.3,29.283h.153c4.435-9.639,9.328-19.644,14.068-29.21.382-.584.612-.949,1.376-.949h12.31c.612,0,.841.438.459,1.022L72.558,81.213Zm25.155,11.9c0-17.015,11.851-30.305,30.66-30.305a35.49,35.49,0,0,1,3.976.146V43.6a.75.75,0,0,1,.765-.73h12.08c.612,0,.765.219.765.584V110.5a49.7,49.7,0,0,0,.382,7.156c0,.438-.153.584-.612.8a47.336,47.336,0,0,1-19.573,4.235c-16.591.073-28.442-9.712-28.442-29.575Zm34.635-18.694a12.047,12.047,0,0,0-4.435-.73c-9.634,0-16.362,7.083-16.362,18.84,0,13.437,6.881,18.84,15.521,18.84a15.041,15.041,0,0,0,5.276-.8Z" transform="translate(0 -1.25)"/>
</svg>
