<svg xmlns="http://www.w3.org/2000/svg" width="184.359" height="164.868" viewBox="0 0 184.359 164.868">
  <path id="Icon_simple-adobeillustrator" data-name="Icon simple-adobeillustrator" d="M0,1.25V166.118H184.359V1.25ZM7.682,8.3h169V159.073h-169ZM63.95,94.6l-6.084,21.123c-.131.585-.384.719-1.137.719H45.452c-.768,0-.883-.232-.768-1.043L66.5,45.335a20.046,20.046,0,0,0,.753-5.869c0-.465.253-.7.638-.7h16.1c.507,0,.768.127.891.7l24.466,76.051c.131.585,0,.93-.638.93H96.036c-.638,0-1.014-.141-1.137-.606L88.562,94.6H63.927ZM85.366,83.156C83.215,75.363,78.145,58.3,76.24,50.041H76.11c-1.644,8.243-5.7,22.194-8.872,33.115H85.366ZM119.933,44c0-4.53,3.418-7.208,7.858-7.208,4.686,0,7.858,2.9,7.858,7.208,0,4.65-3.3,7.208-7.989,7.208-4.609,0-7.758-2.558-7.758-7.208Zm.86,16.022c0-.564.253-.775.891-.775h12.06c.676,0,.922.233.922.817v55.625c0,.585-.123.817-.883.817H121.877c-.768,0-1.022-.352-1.022-.916V60.011Z" transform="translate(0 -1.25)"/>
</svg>
