<svg xmlns="http://www.w3.org/2000/svg" width="176.948" height="142.466" viewBox="0 0 176.948 142.466">
  <g id="Icon_ionic-logo-javascript" data-name="Icon ionic-logo-javascript" transform="translate(68.75 -6.25)">
    <path id="Path_132" data-name="Path 132" d="M.765,7.813h-31.6v86c0,21.281-7.122,27.223-19.516,27.223a46.178,46.178,0,0,1-15.108-2.454l-3.293,25.177c5.806,2.049,14.716,3.277,21.687,3.277,28.457,0,47.829-13.709,47.829-53.012V7.813Z" transform="translate(0 1.676)"/>
    <path id="Path_133" data-name="Path 133" d="M24.95,6.25C-5.638,6.25-25,24.057-25,47.6c0,20.27,14.911,32.961,36.591,41.147,15.68,5.73,21.878,10.85,21.878,19.241,0,9.21-7.164,15.147-20.716,15.147-12.585,0-24.01-4.306-31.754-8.6v-.008l-6,25.587c7.362,4.306,21.108,8.6,36.009,8.6,35.819,0,52.466-19.651,52.466-42.779,0-19.65-10.648-32.338-33.683-41.349-17.039-6.958-24.2-10.845-24.2-19.647,0-6.961,6.2-13.3,18.976-13.3a53.646,53.646,0,0,1,26.268,7l7.554-25.9C50.489,9.172,39.85,6.25,24.95,6.25Z" transform="translate(44.724 0)"/>
  </g>
</svg>
