<svg xmlns="http://www.w3.org/2000/svg" width="316.75" height="161.72" viewBox="0 0 316.75 161.72">
  <path id="Icon_awesome-php" data-name="Icon awesome-php" d="M158.375,25.2c84.83,0,150.06,34.689,150.06,72.788s-65.28,72.788-150.06,72.788c-84.83,0-150.06-34.689-150.06-72.788S73.595,25.2,158.375,25.2m0-8.072C70.922,17.129,0,53.307,0,97.989s70.922,80.86,158.375,80.86S316.75,142.671,316.75,97.989,245.828,17.129,158.375,17.129ZM107.992,91.5c-3.91,19.458-17.718,17.44-34.694,17.44l6.78-33.92C98.885,75.023,111.654,73.053,107.992,91.5ZM48.205,143.3H66.369l4.306-21.524c20.341,0,32.962,1.441,44.642-9.177,12.917-11.531,16.283-32.046,7.077-42.328-4.8-5.381-12.522-8.024-23.014-8.024H64.389ZM140.112,40.671h18.065L153.871,62.2c15.59,0,30.042-1.105,37.02,5.141,7.325,6.534,3.811,14.894-4.108,54.339H168.471c7.622-38.148,9.057-41.319,6.286-44.2-2.673-2.787-8.76-2.21-23.459-2.21l-9.3,46.412H123.928ZM249.936,91.5c-3.959,19.747-18.164,17.44-34.694,17.44l6.78-33.92C240.928,75.023,253.6,73.053,249.936,91.5ZM190.149,143.3h18.213l4.306-21.524c21.381,0,33.209,1.2,44.642-9.177,12.917-11.531,16.283-32.046,7.077-42.328-4.8-5.381-12.522-8.024-23.014-8.024H206.382Z" transform="translate(0 -17.129)"/>
</svg>
