<svg xmlns="http://www.w3.org/2000/svg" xmlns:xlink="http://www.w3.org/1999/xlink" width="754.5" height="533" viewBox="0 0 754.5 533">
  <defs>
    <linearGradient id="linear-gradient" x1="0.5" y1="1" x2="0.5" y2="-0.001" gradientUnits="objectBoundingBox">
      <stop offset="0" stop-color="gray" stop-opacity="0.251"/>
      <stop offset="0.54" stop-color="gray" stop-opacity="0.122"/>
      <stop offset="1" stop-color="gray" stop-opacity="0.102"/>
    </linearGradient>
  </defs>
  <g id="Group_13" data-name="Group 13" transform="translate(-0.011 -0.035)">
    <path id="Path_68" data-name="Path 68" d="M776.023,594.4q-1.261,3.607-2.514,7.118-1.956,5.454-3.862,10.7c-.565,1.549-1.13,3.068-1.681,4.588-6.231,16.9-12.05,31.847-16.992,44.139-9.133,22.687-26.859,36.957-46.236,37.224l-109.884,1.587h-1.159l-9.42.135-8.057.115-24.709.356h-1l-12.579.183h-.384l-77.531,1.116-69.206.962-8.05.115-50,.721H332.7l-32.425.462h-.348L197.4,705.391l-30.672.443a49.385,49.385,0,0,1-19.325-3.674c-10.9-4.369-20.689-12.6-28.324-23.806-13.173-19.266-22.774-41.744-29.223-66.137q-1.4-5.281-2.609-10.7c-22.325-100.177,4.891-229.42,53.873-315.91q3.08-5.425,6.26-10.58l.051-.077c15.064-24.546,31.954-45.053,49.946-59.635,31.882-25.883,67.206-33.174,101.95-11.446,29.4,18.391,56.844,27.038,83.451,29.385,2.688.231,5.376.4,8.05.51,61.032,2.549,118.232-26.643,185.4-45.486,2.674-.75,5.355-1.491,8.057-2.193,47.917-12.658,101.073-19.333,164.287-5.3a109.748,109.748,0,0,1,19.39,6.156q4.181,1.789,8.057,3.847c30.172,16.294,46.627,46.4,53.62,84.123q.993,5.252,1.717,10.686C843.758,376.342,807.448,505.057,776.023,594.4Z" transform="translate(-79.34 -172.91)" fill="#707070" opacity="0.1"/>
    <g id="Group_11" data-name="Group 11" transform="translate(7.908 13.15)" opacity="0.1">
      <path id="Path_69" data-name="Path 69" d="M223.237,217V707.178l-30.672.442a49.386,49.386,0,0,1-19.325-3.674V276.635h.051C188.355,252.059,205.245,231.553,223.237,217Z" transform="translate(-113.106 -187.741)" fill="#707070"/>
      <path id="Path_70" data-name="Path 70" d="M854.875,289.657H164.6q3.08-5.425,6.26-10.58V279h682.3Q854.15,284.223,854.875,289.657Z" transform="translate(-110.727 -190.106)" fill="#707070"/>
      <path id="Path_71" data-name="Path 71" d="M1037.757,191.356v410.71h-2.514q-1.956,5.454-3.862,10.7c-.565,1.549-1.13,3.068-1.681,4.588V187.47Q1033.881,189.259,1037.757,191.356Z" transform="translate(-348.983 -186.614)" fill="#707070"/>
      <path id="Path_72" data-name="Path 72" d="M773.147,186.58V700.448l-8.057.115V188.773C767.764,188.023,770.445,187.282,773.147,186.58Z" transform="translate(-276.107 -186.58)" fill="#707070"/>
      <path id="Path_73" data-name="Path 73" d="M506.16,236.13V705.108l-8.05.115V235.62C500.8,235.851,503.486,235.986,506.16,236.13Z" transform="translate(-202.578 -188.451)" fill="#707070"/>
      <path id="Path_74" data-name="Path 74" d="M776.51,618.52q-1.956,5.454-3.862,10.7H92.859q-1.4-5.281-2.609-10.7Z" transform="translate(-90.25 -203.059)" fill="#707070"/>
    </g>
    <rect id="Rectangle_17" data-name="Rectangle 17" width="13.767" height="55.46" transform="translate(153.326 255.69)" fill="#3f3d56"/>
    <rect id="Rectangle_18" data-name="Rectangle 18" width="13.767" height="58.673" transform="translate(523.832 252.804)" fill="#3f3d56"/>
    <path id="Path_75" data-name="Path 75" d="M654.615,532.563v12.5l-110.08,1.347-1.174.029-41.838.51-1,.019-12.717.144h-.377l-77.517.952-127.245,1.568h-.109l-32.353.4-.348.01L106.1,551.8V537.372l33.8-26.932,67.822-.75,1.449-.01.478-.01,1.449-.029,32.563-.356,1.456-.01.464-.01,1.449-.01,10.441-.115.275-.01,25.759-.289h.21l201-2.251,4.92-.048h.493l3.753-.048,27.281-.3,1.449-.029,1.341-.019h.7l8.485-.087,1.681-.029,2.253-.019,7.065-.087,11.209-.125,1.449-.019,2.522-.019h.471l54.134-.616Z" transform="translate(-29.218 -19.27)" fill="#65617d"/>
    <path id="Path_76" data-name="Path 76" d="M654.615,532.563v12.5l-110.08,1.347-1.174.029-41.838.51-1,.019-12.717.144h-.377l-77.517.952-127.245,1.568h-.109l-32.353.4-.348.01L106.1,551.8V537.372l33.8-26.932,67.822-.75,1.449-.01.478-.01,1.449-.029,32.563-.356,1.456-.01.464-.01,1.449-.01,10.441-.115.275-.01,25.759-.289h.21l201-2.251,4.92-.048h.493l3.753-.048,27.281-.3,1.449-.029,1.341-.019h.7l8.485-.087,1.681-.029,2.253-.019,7.065-.087,11.209-.125,1.449-.019,2.522-.019h.471l54.134-.616Z" transform="translate(-29.218 -19.27)" opacity="0.2"/>
    <path id="Path_77" data-name="Path 77" d="M362.449,656.57v23.556a6.272,6.272,0,0,1-2.536,5.329,3.5,3.5,0,0,1-1.811.577l-25.288.712a3.465,3.465,0,0,1-1.956-.548,6.232,6.232,0,0,1-2.587-5.358V656.57Z" transform="translate(-147.895 -191.361)" fill="#3f3d56"/>
    <path id="Path_78" data-name="Path 78" d="M362.449,656.57v23.556a6.272,6.272,0,0,1-2.536,5.329,3.5,3.5,0,0,1-1.811.577l-25.288.712a3.465,3.465,0,0,1-1.956-.548,6.232,6.232,0,0,1-2.587-5.358V656.57Z" transform="translate(-147.895 -191.361)" opacity="0.1"/>
    <path id="Path_79" data-name="Path 79" d="M364.449,656.57v23.556a6.272,6.272,0,0,1-2.536,5.329,3.5,3.5,0,0,1-1.811.577l-25.288.712a3.465,3.465,0,0,1-1.956-.548,6.232,6.232,0,0,1-2.587-5.358V656.57Z" transform="translate(-148.445 -191.361)" fill="#3f3d56"/>
    <rect id="Rectangle_19" data-name="Rectangle 19" width="34.179" height="30.298" transform="translate(493.399 465.209)" fill="#3f3d56"/>
    <rect id="Rectangle_20" data-name="Rectangle 20" width="34.179" height="30.298" transform="translate(493.399 465.209)" opacity="0.1"/>
    <rect id="Rectangle_21" data-name="Rectangle 21" width="34.179" height="30.298" transform="translate(491.95 465.209)" fill="#3f3d56"/>
    <path id="Path_80" data-name="Path 80" d="M225.367,265.82v5.511L211.6,270.86v-5.04Z" transform="translate(-58.274 -10.14)" opacity="0.1"/>
    <path id="Path_81" data-name="Path 81" d="M375.052,276.65,358.51,434.393c-.217,2.086-1.58,3.623-3.166,3.568L222.888,433.4l-2.514-.087a2.9,2.9,0,0,1-2.3-1.448,5.116,5.116,0,0,1-.719-3.236L235.931,263.5c.248-2.12,1.677-3.637,3.29-3.492l132.934,11.946a2.945,2.945,0,0,1,2.224,1.5,5.13,5.13,0,0,1,.674,3.19Z" transform="translate(-117.341 -176.231)" fill="#65617d"/>
    <path id="Path_82" data-name="Path 82" d="M170.606,99.16,156.6,244.717l121.731,5.127,14.97-140.43Z" transform="translate(-43.126 -3.782)" fill="#707070"/>
    <rect id="Rectangle_22" data-name="Rectangle 22" width="148.302" height="166.717" rx="5.33" transform="translate(278.681 93.128)" fill="#65617d"/>
    <rect id="Rectangle_23" data-name="Rectangle 23" width="134.774" height="138.824" transform="translate(285.68 104.352)" fill="#707070"/>
    <path id="Path_83" data-name="Path 83" d="M736.7,262.82v3.645l-13.767.375V262.82Z" transform="translate(-199.098 -10.025)" opacity="0.1"/>
    <path id="Path_84" data-name="Path 84" d="M849.32,425.829a3.6,3.6,0,0,1-.58,2.193,2.047,2.047,0,0,1-1.594.962L711.5,432.707c-1.169.032-2.158-1.139-2.268-2.684l-11.659-160.9a3.638,3.638,0,0,1,.535-2.222,2.084,2.084,0,0,1,1.581-1.019L834.307,257l1.449-.1c1.2-.084,2.229,1.107,2.333,2.693Z" transform="translate(-249.602 -176.113)" fill="#65617d"/>
    <path id="Path_85" data-name="Path 85" d="M628.93,102.842,751.871,94.82l10.383,146.2-121.971,3.847Z" transform="translate(-173.21 -3.616)" fill="#707070"/>
    <path id="Path_86" data-name="Path 86" d="M901.294,425.829a3.6,3.6,0,0,1-.58,2.193,2.047,2.047,0,0,1-1.594.962L886.28,257l1.449-.1c1.2-.084,2.229,1.107,2.333,2.693Z" transform="translate(-301.575 -176.113)" opacity="0.1"/>
    <path id="Path_87" data-name="Path 87" d="M239.242,260,222.888,433.4l-2.514-.087a2.9,2.9,0,0,1-2.3-1.448,5.116,5.116,0,0,1-.719-3.236L235.931,263.5C236.176,261.365,237.619,259.839,239.242,260Z" transform="translate(-117.341 -176.231)" opacity="0.1"/>
    <rect id="Rectangle_24" data-name="Rectangle 24" width="13.767" height="16.428" transform="translate(153.326 294.722)" opacity="0.1"/>
    <path id="Path_88" data-name="Path 88" d="M285.109,483.65v4.78l-34.179,1.212V483.65Z" transform="translate(-69.105 -18.45)" opacity="0.1"/>
    <path id="Path_89" data-name="Path 89" d="M405.746,485.119V646.9c-.018,2.051-1.246,3.723-2.79,3.8l-138.868,4.905h-.036c-1.573-.026-2.843-1.712-2.862-3.8V485.119c.02-2.087,1.29-3.773,2.862-3.8H402.884c1.573.026,2.843,1.712,2.862,3.8Z" transform="translate(-129.42 -184.675)" fill="#65617d"/>
    <path id="Path_90" data-name="Path 90" d="M264.088,481.32V655.607h-.036c-1.573-.026-2.843-1.712-2.862-3.8V485.119c.02-2.087,1.29-3.773,2.862-3.8Z" transform="translate(-129.42 -184.675)" opacity="0.1"/>
    <path id="Path_91" data-name="Path 91" d="M194.6,319.15H323.215V461.744L194.6,465.592Z" transform="translate(-53.592 -12.174)" fill="#d4dfec"/>
    <rect id="Rectangle_25" data-name="Rectangle 25" width="13.767" height="16.755" transform="translate(523.832 294.722)" opacity="0.1"/>
    <path id="Path_92" data-name="Path 92" d="M713.109,483.65v6.165L678.93,488.6V483.65Z" transform="translate(-186.98 -18.45)" opacity="0.1"/>
    <path id="Path_93" data-name="Path 93" d="M812.735,485.119V651.808c-.02,2.106-1.312,3.8-2.9,3.8h0L670.94,650.7c-1.544-.077-2.771-1.748-2.79-3.8V485.119c.019-2.087,1.289-3.773,2.862-3.8H809.844C811.428,481.325,812.715,483.017,812.735,485.119Z" transform="translate(-241.501 -184.675)" fill="#65617d"/>
    <path id="Path_94" data-name="Path 94" d="M866.588,485.119V651.808c-.02,2.106-1.312,3.8-2.9,3.8h0V481.32h0c1.587,0,2.879,1.693,2.9,3.8Z" transform="translate(-295.354 -184.675)" opacity="0.1"/>
    <path id="Path_95" data-name="Path 95" d="M726.715,319.15H598.1V461.744l128.615,3.847Z" transform="translate(-164.719 -12.174)" fill="#d4dfec"/>
    <path id="Path_96" data-name="Path 96" d="M608.246,485.119V646.9c-.018,2.051-1.245,3.722-2.79,3.8l-138.868,4.905h0c-1.587,0-2.879-1.694-2.9-3.8V485.119c.02-2.087,1.29-3.773,2.862-3.8H605.384C606.956,481.346,608.226,483.032,608.246,485.119Z" transform="translate(-185.19 -184.675)" fill="#65617d"/>
    <path id="Path_97" data-name="Path 97" d="M397.1,319.15H525.715V461.744L397.1,465.592Z" transform="translate(-109.362 -12.174)" fill="#d4dfec"/>
    <path id="Path_98" data-name="Path 98" d="M654.615,533.65v12.5L544.536,547.5l-1.174.029-41.838.51-1,.019-12.717.144h-.377l-77.517.952-127.245,1.568h-.109l-32.353.4-.348.01L106.1,552.887V538.459l146.737-1.279h.348l29.7-.269h.138l205.117-1.8h.21l.123-.01h.341l3.471-.029h1.058l53.975-.481,3.188-.019.71-.01Z" transform="translate(-29.218 -20.358)" opacity="0.1"/>
    <ellipse id="Ellipse_4" data-name="Ellipse 4" cx="37.193" cy="49.372" rx="37.193" ry="49.372" transform="translate(315.874 212.407)" fill="#fbbebe"/>
    <path id="Path_99" data-name="Path 99" d="M383.74,710.7a1.505,1.505,0,0,1,.072-.337c.725-3.453,2.014-9.291,2.978-13.956.123-.577.239-1.145.348-1.683,1.065-5.261,3.137-17.583,4.29-25.268.406-2.7.725-4.809.79-5.867.145-1.625,2.326-8.58,4.8-16.573,1.732-5.617,3.623-11.754,5.007-16.929a74.216,74.216,0,0,0,2.123-9.474,6.48,6.48,0,0,0,0-2.049,18.5,18.5,0,0,1-.348-3.367h0c-.167-5.964,1.174-15.39,3.246-19.343,2.536-4.809,4.348-22.757,4.348-22.757a3.654,3.654,0,0,0,4.348-3.4,7.819,7.819,0,0,0,.072-1.347,9.422,9.422,0,0,0-.065-1.068c-.645-6,10.666-12.389,17.028-13.764a10.844,10.844,0,0,1,2.174-.269,15.767,15.767,0,0,0,4.529-1.385q1.014-.414,2.174-.962c2.666-1.193,5.855-2.77,9.239-4.5,12.724-6.55,28.129-15.39,28.129-15.39.109-.683.232-1.337.37-1.981,1.543-8.225,5.942-14.984,11.847-18.208h0v-1.924c0-3.318-.109-6.733-.217-10.138,0-.664-.043-1.327-.072-1.991v-1.087c0-.673-.051-1.347-.08-2.01l-.13-.135a14.962,14.962,0,0,1-2.826-4.04,17.2,17.2,0,0,1-1.029-2.886c-.906-3.261-1.116-6.9-1.724-10.34l-.13-.712a98.642,98.642,0,0,0-2.9-10.176c-1.6-5.213-2.833-10.58-4.058-16.015q-1.116-4.934-2.253-9.888l-1.145-5.04c-.217-.962-.435-1.924-.6-2.886h0q-.121-.666-.188-1.347h0a12.671,12.671,0,0,1,.174-4.434q.422-1.474.956-2.886a9.294,9.294,0,0,0,.362-1.327h0q.035-.152.058-.308a7.154,7.154,0,0,0,.08-1.039,23.273,23.273,0,0,0-.377-3.742.088.088,0,0,1,0-.048q-.013-.131-.036-.26-.195-1.431-.261-2.886a34.922,34.922,0,0,1,2.514-14.976l.138-.346a26.05,26.05,0,0,1,1.333-2.674h0a13.472,13.472,0,0,1,.725-1.173c-1.014,1.289-2.681.721-3.623-.664a3.6,3.6,0,0,1-.4-.721,4.218,4.218,0,0,1-.167-.433c-.036-.115-.065-.24-.094-.366a9.674,9.674,0,0,1,1.536-6.781,15.054,15.054,0,0,1,4.159-4.521h0a2.651,2.651,0,0,1,.29-.2,10.873,10.873,0,0,1,1.913-1.02h0a8.867,8.867,0,0,1,1.181-.423l-2.688-.327-1.087-.135c1.107-5.828,4.9-10.058,9.42-10.494h.783a6.459,6.459,0,0,1,1.138.125,4.566,4.566,0,0,1-1.92-4.165,8.9,8.9,0,0,0,6.659,2.943h.275q-.188-1.562-.246-3.145h0a42.309,42.309,0,0,1,0-4.29,5.26,5.26,0,0,0,4.913,2.174l-1.507-2.789a5.814,5.814,0,0,0,4.753,1.972l.348-.048a3.984,3.984,0,0,0,.862-.221h.065c-.138-.231-.261-.471-.384-.721l-.043-.115a10.87,10.87,0,0,1-.725-2.01,8.029,8.029,0,0,1-.174-.837h0a11,11,0,0,1,.326-5.242c2.34,2.6,4.905,6.146,7.97,3.463s3.167-7.608,7.971-7.108c2.689.337,5.025,2.594,6.094,5.887,1.389-2.084,3.625-2.761,5.558-1.683,1.9,1.2,3.026,3.851,2.811,6.627,1.993-.664,4.137-1.318,6.05-.317a5.3,5.3,0,0,1,2.058,6.406,1.448,1.448,0,0,1-.1.192c-.891,1.529-2.862,2.366-2.652,4.29l.3.289.942.9q5.543,5.309,10.8,11.157c1.8,2,3.71,4.405,3.833,7.531a10.933,10.933,0,0,1-.174,2.28h0c-.116.75-.275,1.5-.4,2.251a24.8,24.8,0,0,0-.246,5.819h0c.051.567.116,1.125.2,1.693,1.109,7.435,5.587,13.572,6.029,21.161v.539a22.678,22.678,0,0,1-.051,2.434c-.333,4.617-1.942,9.051-3.246,13.466-.08.269-.159.539-.232.808a171,171,0,0,0-5.072,27.086q-.536,4.9-1.449,9.705a29.832,29.832,0,0,1-3.688,10.032,13.693,13.693,0,0,1-2.435,2.886,12.871,12.871,0,0,1-1.92,1.356v.058c.08.587.145,1.173.225,1.76.043.308.08.616.123.962h0a.176.176,0,0,0,0,.058c.609,4.55,1.3,9,2.036,13.235l.37,2.106c9.13,4.376,10.21,13.341,10.275,16.775a12.279,12.279,0,0,1,0,1.375s13.767.481,19.2,5.771a13.835,13.835,0,0,0,3.268,2.212,50,50,0,0,0,6.7,2.78c1.167.4,2.384.8,3.623,1.183,2.174.664,4.478,1.308,6.7,1.924,5.934,1.587,11.521,2.885,14.354,3.847,6.76,2.27,22.223,21.949,22.223,21.949s1.811,19.853,3.623,22.748,5.072,13.072,5.072,13.072l11.985,28.288,5.072,11.9h3.261c.449,0,1.333.846,2.326,2.02.862,1.02,1.819,2.289,2.659,3.443l1.391,1.972.87,1.279a7.43,7.43,0,0,1,6.7,5.7c4.29-.164,9.557.212,13.246,2.4a9.794,9.794,0,0,1,1.449,1.039,8.582,8.582,0,0,1,2.992,5.444,10.539,10.539,0,0,1,.13,1.385c0,.548,0,1.1,0,1.635-.261,7.281-3.833,13.341-7.115,17.419l.232.548s-.109.346-.319.962c-.058.183-.13.385-.21.616h0c-.428,1.212-1.109,3.03-2,5.155a63.341,63.341,0,0,1-6.934,12.667l-.21.289-41.838.51-.123-.192-8.115-12.85-4.036-6.387-.123-.2-.116,1.529-.391,5.1-.942,12.321-.051.616v.164l-.109,1.424.08-1.424h-.21l-77.531.962-127.253,1.866v.808h-.1v-.808l-32.425.462Z" transform="translate(-163.171 -179.588)" fill="url(#linear-gradient)"/>
    <path id="Path_100" data-name="Path 100" d="M592.977,545.872s-72.1,11.542-65.213,0c2.493-4.174,3.181-16.544,3.043-30.635-.043-4.28-.159-8.714-.326-13.129-.8-21.161-2.717-41.84-2.717-41.84s63.04-39.436,55.794-8.176c-2.9,12.629-1.949,30.366.254,47.015.645,4.857,1.391,9.618,2.174,14.139q2.865,16.54,6.992,32.626Z" transform="translate(-202.709 -183.1)" fill="#fbbebe"/>
    <path id="Path_101" data-name="Path 101" d="M592.977,548.685s-72.1,11.542-65.213,0c2.493-4.174,3.181-16.544,3.043-30.635,10.992-6.233,24.977-1.587,24.977-1.587,14.724-3.9,24.165-3.136,30.2-.4q2.865,16.54,6.992,32.626Z" transform="translate(-202.709 -185.913)" opacity="0.1"/>
    <path id="Path_102" data-name="Path 102" d="M416.711,717.44v-.808l127.253-1.837,77.531-.962h.217l-.08,1.424.109-1.424h.138v-.164l.993-12.937.377-4.9.116-1.529.1-1.279,4.478-19.824,4.478-19.795,3.768-16.669,5.753-25.47s-3.261-10.1-5.072-12.985-3.623-22.6-3.623-22.6-15.463-19.554-22.223-21.805c-2.833-.962-8.427-2.241-14.369-3.847-2.224-.6-4.507-1.231-6.7-1.924-1.239-.375-2.456-.769-3.623-1.164a52.868,52.868,0,0,1-6.7-2.751,14.07,14.07,0,0,1-3.261-2.2c-5.326-5.184-18.673-5.771-19.187-5.771h0a.54.54,0,0,1,0-.067v-.087c.019-.4.019-.808,0-1.212a10.217,10.217,0,0,0-.065-1.347,1.583,1.583,0,0,0-.051-.481c-.036-.346-.08-.712-.145-1.1q-.033-.258-.087-.51a20.352,20.352,0,0,0-.906-3.357c-.051-.154-.116-.318-.174-.471a18.983,18.983,0,0,0-1.232-2.53c-.094-.163-.2-.337-.3-.5a17.122,17.122,0,0,0-1.971-2.539c-.2-.2-.4-.414-.609-.606a3.571,3.571,0,0,0-.37-.346l-.645-.558-.6-.462a20.21,20.21,0,0,0-1.7-1.116c-.188-.115-.391-.221-.594-.327s-.522-.269-.79-.4H546.9l-.543-.288c-.413-.183-.833-.346-1.275-.51l-.674-.231-.725-.221-.725-.2c-.725-.192-1.5-.366-2.311-.5l-.826-.135-.848-.115-.877-.1-1.246-.1-1.449-.067a69.085,69.085,0,0,0-19.022,2.686,39.947,39.947,0,0,0-13.223-1.618h-.63l-.725.058h-.464l-.935.115a5.314,5.314,0,0,0-.942.144c-.312.058-.638.106-.949.173l-.478.106c-.471.106-.949.221-1.449.356a4.5,4.5,0,0,0-.478.144c-.63.183-1.261.4-1.884.654-.312.115-.623.25-.935.394a4.247,4.247,0,0,0-.464.212l-.464.221-.457.24-.543.289c-.275.154-.543.317-.812.491a4.731,4.731,0,0,0-.449.289c-.145.106-.3.192-.435.3a21.256,21.256,0,0,0-4.5,4.213l-.37.471-.362.491c-.123.164-.239.337-.355.51a22.949,22.949,0,0,0-1.319,2.164c-.116.2-.225.4-.333.616a28.524,28.524,0,0,0-1.246,2.809c-.094.231-.181.471-.268.7a38.338,38.338,0,0,0-1.449,5.05q-.2.962-.37,1.924s-15.34,8.984-28.064,15.486c-3.384,1.731-6.572,3.3-9.239,4.482-.775.346-1.5.664-2.174.962a15.457,15.457,0,0,1-4.529,1.385,10.853,10.853,0,0,0-2.174.269c-5.847,1.26-15.869,6.733-16.963,12.225a4.677,4.677,0,0,0-.072,1.347s0,.067,0,.106c.725,6.733-4.348,5.771-4.348,5.771s-1.811,17.794-4.348,22.6c-1.833,3.463-3.087,11.186-3.246,17.015h0a24.881,24.881,0,0,0,.319,5.415v.135c.29,1.289-.406,4.809-1.587,9.32-1.283,4.954-3.152,11.109-4.949,16.919-2.71,8.772-5.261,16.736-5.42,18.487-.065.779-.254,2.174-.514,3.972-1.058,7.329-3.406,21.286-4.565,26.932-.862,4.213-2.116,9.984-2.978,13.947a1.7,1.7,0,0,1-.072.337l32.483-.423v.808h.1Z" transform="translate(-163.29 -185.988)" fill="#707070"/>
    <path id="Path_103" data-name="Path 103" d="M445.44,607.57s41.3,28.375,56.156,25.008Z" transform="translate(-180.164 -189.491)" opacity="0.1"/>
    <path id="Path_104" data-name="Path 104" d="M561.44,595.57s40.215,17.313,53.62,19.718S561.44,595.57,561.44,595.57Z" transform="translate(-212.112 -189.033)" opacity="0.1"/>
    <path id="Path_105" data-name="Path 105" d="M593.476,536.892c-21.013,5.136-60.576,4.03-77.676,3.251,6.268-29.817,36.831-19.679,36.831-19.679C590.462,510.441,593.36,531.236,593.476,536.892Z" transform="translate(-199.542 -186.065)" opacity="0.1"/>
    <path id="Path_106" data-name="Path 106" d="M593.476,534.892c-21.013,5.136-60.576,4.03-77.676,3.251,6.268-29.817,36.831-19.679,36.831-19.679C590.462,508.441,593.36,529.236,593.476,534.892Z" transform="translate(-199.542 -185.989)" fill="#707070"/>
    <path id="Path_107" data-name="Path 107" d="M776.94,672.286s24.752-5.05,25.238,9.378-12.622,24.508-12.622,24.508Z" transform="translate(-271.462 -191.928)" fill="#fbbebe"/>
    <path id="Path_108" data-name="Path 108" d="M583.971,499.107a29.589,29.589,0,0,1-3.261,1.674c-7.811,3.578-15.687,7.185-23.911,8.493s-16.854.154-24.027-5.29a21.328,21.328,0,0,1-2.174-1.876c-.8-21.161-2.717-41.84-2.717-41.84s63.039-39.436,55.794-8.176C580.79,464.721,581.768,482.458,583.971,499.107Z" transform="translate(-202.869 -183.1)" opacity="0.1"/>
    <path id="Path_109" data-name="Path 109" d="M540.237,364.345a5.605,5.605,0,0,1-6.029-1.683l1.507,2.78a5.274,5.274,0,0,1-4.913-2.164,43.4,43.4,0,0,0,.232,7.454,8.888,8.888,0,0,1-6.927-2.886,4.544,4.544,0,0,0,1.913,4.146c-5.182-.822-10.019,3.587-11.3,10.3l3.782.462a13.416,13.416,0,0,0-7.565,6.127,9.571,9.571,0,0,0-1.536,6.733c.507,2.347,2.956,3.847,4.29,2.174a33.483,33.483,0,0,0-4.42,21.921,18.317,18.317,0,0,1,.333,5.059c-.239,1.587-.993,2.962-1.37,4.511-.725,2.809-.036,5.858.609,8.657l3.4,14.832c1.232,5.358,2.456,10.725,4.065,15.909a96.288,96.288,0,0,1,2.9,10.109c.913,4.655.949,9.753,2.9,13.822a16.727,16.727,0,0,0,5.2,6.089c7.166,5.444,15.825,6.6,24.027,5.29s16.071-4.915,23.875-8.493a20.162,20.162,0,0,0,4.956-2.886c5.4-4.694,6.6-14.293,7.608-22.748a164.587,164.587,0,0,1,5.282-27.7c1.58-5.281,3.623-10.638,3.275-16.294-.442-7.512-4.92-13.6-6.029-20.988a24.149,24.149,0,0,1,.051-7.474,22.1,22.1,0,0,0,.572-4.521c-.123-3.1-2.036-5.483-3.833-7.474q-5.847-6.483-12.072-12.254c-.21-1.924,1.761-2.751,2.652-4.271,1.261-2.145-.043-5.55-1.956-6.55s-4.058-.346-6.05.317c.267-2.78-.874-5.463-2.8-6.6s-4.194-.45-5.564,1.682c-1.078-3.281-3.416-5.522-6.1-5.848-4.8-.5-4.9,4.376-7.97,7.06s-5.608-.856-7.971-3.434A11.351,11.351,0,0,0,540.237,364.345Z" transform="translate(-197.372 -179.735)" fill="#3f3d56"/>
    <path id="Path_110" data-name="Path 110" d="M775.464,698.706s-.645,2.039-1.833,4.992a70.472,70.472,0,0,1-6.521,12.668l-.2.279H765.74l-41.838.51h-1l-.123-.192-8.115-12.783-3.058-4.819-.123-.2-.261-.4-.145-.231-.188-.3-5.949-9.368,2.174-12.023,3.7-20.257.094-.491.725-3.847.515-2.886,1.724-9.407,5.913-32.366,10.507,7.214,11.079,25.97,5.949,13.947h3.261c.616,0,2.029,1.577,3.449,3.4.507.644,1.015,1.327,1.449,1.924,1.29,1.77,2.311,3.289,2.311,3.289a7.4,7.4,0,0,1,6.7,5.675q.11.4.181.818a47.155,47.155,0,0,0,1.833,6.31c.935,2.7,2.109,5.771,3.3,8.839,2.21,5.627,4.456,10.984,5.282,12.927l.1.24Z" transform="translate(-251.633 -189.492)" fill="#707070"/>
    <path id="Path_111" data-name="Path 111" d="M637.217,656.726l-.072,1.375v.1l-.123,2.212-.964,17.8-1.167,21.449-.333,6.04-.725,12.927v.164l-77.531.962-127.231,1.828v.808h-.1v-1.077L429.3,707.5l.623-26.99.536-22.882.051-2.28a11.737,11.737,0,0,1,2.552-7.254,6.541,6.541,0,0,1,5.723-2.528c3.42.385,7.862.856,13.173,1.356l2.174.212c30.672,2.828,87.357,6.483,144.556,1.924,1.2-.087,2.413-.183,3.623-.3,8.869-.741,17.731-1.693,26.506-2.885a6.6,6.6,0,0,1,6.1,2.8,12.126,12.126,0,0,1,2.3,8.005Z" transform="translate(-175.628 -190.94)" opacity="0.1"/>
    <path id="Path_112" data-name="Path 112" d="M429.08,722.545v-.808L556.333,719.9l77.531-.962h.217v-.164l.725-12.927.312-5.771,1.188-21.747.935-17.217v-.423a13.523,13.523,0,0,0-.08-2.376.381.381,0,0,0,0-.1,11.874,11.874,0,0,0-1.449-4.463c-1.622-2.761-4.2-4.216-6.826-3.847-8.775,1.193-17.637,2.145-26.506,2.886-1.21.115-2.42.212-3.623.3-57.2,4.511-113.884.856-144.556-1.924l-2.174-.212c-5.311-.5-9.753-.962-13.173-1.356-3.9-.437-7.412,3.105-8.144,8.2a13.938,13.938,0,0,0-.13,1.577l-.493,21.315-.674,27-.319,13.812v1.077Z" transform="translate(-175.658 -191.093)" fill="#3f3d56"/>
    <path id="Path_113" data-name="Path 113" d="M637.473,663.909l-.891,14.745-1.326,21.978-.333,5.5-.725,12.321-.044.616v.164h0l-.109,1.424.08-1.424h-.21l-77.531.962L429.11,722.024v-.269l.355-13.812.725-26.99.464-17.938a6.687,6.687,0,0,1,2.217-5.05,3.677,3.677,0,0,1,2.739-.866c1.522.163,3.391.356,5.572.568,3.543.346,7.913.75,13,1.173,9.42.789,21.238,1.635,34.78,2.328,37.679,1.924,88.545,2.568,136.861-3.049,2.174-.25,4.42-.529,6.616-.808a3.6,3.6,0,0,1,2.521.635,3.773,3.773,0,0,1,.623.519,5.881,5.881,0,0,1,1.449,2.366,4.131,4.131,0,0,1,.181.587A7.881,7.881,0,0,1,637.473,663.909Z" transform="translate(-175.667 -191.38)" opacity="0.1"/>
    <path id="Path_114" data-name="Path 114" d="M364.449,677.87v3.068a6.272,6.272,0,0,1-2.536,5.329l-29.056.741a6.233,6.233,0,0,1-2.587-5.357v-2.886Z" transform="translate(-148.445 -192.173)" opacity="0.1"/>
    <path id="Path_115" data-name="Path 115" d="M284.21,515.239l-37.86.962v-8.339l37.86-.962Z" transform="translate(-67.844 -19.337)" fill="#3f3d56"/>
    <path id="Path_116" data-name="Path 116" d="M284.21,515.239l-37.86.962v-8.339l37.86-.962Z" transform="translate(-67.844 -19.337)" opacity="0.1"/>
    <path id="Path_117" data-name="Path 117" d="M286.21,515.239l-37.86.962v-8.339l37.86-.962Z" transform="translate(-68.395 -19.337)" fill="#3f3d56"/>
    <g id="Group_12" data-name="Group 12" transform="translate(310.841 177.28)" opacity="0.1">
      <path id="Path_118" data-name="Path 118" d="M552.378,361.394a11.12,11.12,0,0,1-1.37-4.174,11.973,11.973,0,0,0,.3,4.424A5.087,5.087,0,0,0,552.378,361.394Z" transform="translate(-520.057 -357.22)"/>
      <path id="Path_119" data-name="Path 119" d="M540.128,368.059q-.2-1.769-.268-3.559c0,1.183,0,2.376,0,3.568Z" transform="translate(-517.01 -357.498)"/>
      <path id="Path_120" data-name="Path 120" d="M621.711,401.25a23.131,23.131,0,0,1,.261-2.549,22.517,22.517,0,0,0,.58-4.511,7.729,7.729,0,0,0-.116-1.02c-.123.885-.319,1.77-.464,2.645a24.32,24.32,0,0,0-.261,5.434Z" transform="translate(-539.538 -358.591)"/>
      <path id="Path_121" data-name="Path 121" d="M600.924,370.477l.79.76a16.408,16.408,0,0,0,1.862-2.135,4.52,4.52,0,0,0,.275-3.5,3.2,3.2,0,0,1-.275.616C602.685,367.735,600.714,368.572,600.924,370.477Z" transform="translate(-533.823 -357.54)"/>
      <path id="Path_122" data-name="Path 122" d="M518.52,380.29a14.433,14.433,0,0,0-.63,2.193,11.389,11.389,0,0,1,3.623-1.818Z" transform="translate(-510.959 -358.1)"/>
      <path id="Path_123" data-name="Path 123" d="M532.03,369.363a11.024,11.024,0,0,1-1.362-1.183,5.389,5.389,0,0,0,.065,1.135,6.487,6.487,0,0,1,1.3.048Z" transform="translate(-514.476 -357.638)"/>
      <path id="Path_124" data-name="Path 124" d="M596.721,428.33c-.3,4.665-1.935,9.157-3.261,13.581a164.515,164.515,0,0,0-5.282,27.711c-1.007,8.455-2.174,18.054-7.608,22.738a19.519,19.519,0,0,1-4.949,2.886c-7.811,3.588-15.687,7.185-23.912,8.493s-16.854.164-24.027-5.281a16.786,16.786,0,0,1-5.2-6.088c-1.935-4.069-1.971-9.166-2.9-13.822a96.448,96.448,0,0,0-2.9-10.119c-1.6-5.175-2.833-10.58-4.058-15.9q-1.7-7.416-3.4-14.841a35.463,35.463,0,0,1-.826-4.569,22.458,22.458,0,0,0,.826,7.454q1.7,7.435,3.4,14.841c1.225,5.358,2.456,10.725,4.058,15.9a96.44,96.44,0,0,1,2.9,10.119c.913,4.655.949,9.753,2.9,13.822a16.785,16.785,0,0,0,5.2,6.089c7.173,5.444,15.825,6.589,24.027,5.281s16.071-4.905,23.911-8.493a19.518,19.518,0,0,0,4.949-2.885c5.4-4.684,6.6-14.284,7.608-22.738a164.517,164.517,0,0,1,5.282-27.711c1.58-5.271,3.623-10.628,3.275-16.294C596.736,428.445,596.721,428.388,596.721,428.33Z" transform="translate(-508.324 -359.933)"/>
      <path id="Path_125" data-name="Path 125" d="M510.385,424.129v-.106a17.721,17.721,0,0,0-.333-5.05c-.145-1.056-.239-2.122-.283-3.193a34.788,34.788,0,0,0,.283,6.079C510.167,422.609,510.3,423.369,510.385,424.129Z" transform="translate(-508.714 -359.454)"/>
      <path id="Path_126" data-name="Path 126" d="M512.714,399.775a27.962,27.962,0,0,1,1.891-3.53c-1.326,1.683-3.775.183-4.29-2.155a7.39,7.39,0,0,0,0,2.886A3.666,3.666,0,0,0,512.714,399.775Z" transform="translate(-508.834 -358.627)"/>
    </g>
    <path id="Path_127" data-name="Path 127" d="M763.052,656.57s2.3,11.061,0,20.68S763.052,656.57,763.052,656.57Z" transform="translate(-267.356 -191.361)" opacity="0.1"/>
    <path id="Path_128" data-name="Path 128" d="M776.2,668.3s.964,14.043-1.21,16.534S776.2,668.3,776.2,668.3Z" transform="translate(-270.725 -191.808)" opacity="0.1"/>
    <line id="Line_4" data-name="Line 4" y1="0.962" x2="73.626" transform="translate(144.189 328.819)" fill="none" stroke="#707070" stroke-miterlimit="10" stroke-width="2"/>
    <line id="Line_5" data-name="Line 5" y1="0.952" x2="73.626" transform="translate(144.189 340.823)" fill="none" stroke="#707070" stroke-miterlimit="10" stroke-width="2"/>
    <line id="Line_6" data-name="Line 6" y1="0.962" x2="73.626" transform="translate(144.189 352.817)" fill="none" stroke="#707070" stroke-miterlimit="10" stroke-width="2"/>
  </g>
</svg>
