<svg xmlns="http://www.w3.org/2000/svg" width="294.588" height="214.879" viewBox="0 0 294.588 214.879">
  <path id="Icon_awesome-sass" data-name="Icon awesome-sass" d="M138.936,165.577C138.8,165.846,138.66,166.061,138.936,165.577ZM253.61,126.634a61.782,61.782,0,0,0-26.7,6.043c-2.716-5.327-5.524-9.982-5.984-13.474-.552-4.073-1.151-6.491-.506-11.325s3.544-11.683,3.5-12.175-.644-2.954-6.582-3-11.047,1.119-11.641,2.641a53.807,53.807,0,0,0-2.44,8.55c-1.059,5.237-11.871,23.948-17.993,33.706-2.025-3.8-3.728-7.162-4.1-9.848-.552-4.073-1.151-6.491-.506-11.325s3.544-11.683,3.5-12.175-.644-2.954-6.578-3-11.047,1.119-11.646,2.641-1.243,5.1-2.44,8.55-15.6,34.6-19.369,42.7c-1.933,4.118-3.59,7.431-4.787,9.669-.184.358-.322.582-.414.761.138-.224.23-.448.23-.358-1.013,1.925-1.611,3-1.611,3v.045c-.783,1.432-1.657,2.731-2.071,2.731-.276,0-.875-3.76.138-8.908,2.163-10.833,7.273-27.663,7.227-28.245-.046-.313.967-3.223-3.36-4.79-4.189-1.477-5.708.985-6.076.985s-.644.9-.644.9,4.649-18.979-8.925-18.979c-8.47,0-20.253,9.042-26.044,17.234C94.153,131.11,86.282,135.273,78,139.7c-3.176,1.7-6.444,3.447-9.528,5.1-.23-.224-.414-.448-.644-.671-16.474-17.1-46.891-29.185-45.6-52.149.46-8.371,3.452-30.349,58.49-57.028,45.109-21.844,81.174-15.846,87.383-2.507,8.93,19.024-19.282,54.432-66.127,59.535-17.855,1.925-27.24-4.79-29.588-7.3-2.44-2.641-2.808-2.775-3.728-2.283-1.519.806-.552,3.133,0,4.521,1.381,3.536,7.135,9.8,16.934,12.936,8.608,2.731,29.542,4.252,54.854-5.282,28.437-10.654,50.573-40.331,44.083-65.175C177.914,4.162,134.867-4.119,94.162,9.937,69.909,18.307,43.681,31.468,24.814,48.612,2.4,69.024-1.184,86.795.289,94.225c5.243,26.365,42.61,43.554,57.565,56.267-.736.4-1.427.761-2.071,1.119-7.5,3.626-35.986,18.129-43.116,33.438-8.055,17.368,1.335,29.812,7.5,31.513C39.4,221.755,59.1,212.4,69.679,197.045s9.3-35.407,4.419-44.539c-.046-.134-.138-.224-.184-.358,1.933-1.119,3.913-2.238,5.892-3.357,3.816-2.193,7.544-4.208,10.812-5.953-1.841,4.834-3.176,10.654-3.867,19.069-.829,9.848,3.36,22.605,8.792,27.619a9.847,9.847,0,0,0,7.084,2.238c6.352,0,9.206-5.1,12.377-11.191,3.913-7.431,7.365-16.07,7.365-16.07s-4.327,23.366,7.5,23.366c4.322,0,8.649-5.416,10.587-8.192v.045s.092-.179.322-.537c.46-.671.69-1.074.69-1.074v-.134c1.749-2.91,5.57-9.579,11.319-20.591,7.457-14.235,14.587-32.005,14.587-32.005a88.023,88.023,0,0,0,2.854,11.549c1.289,4.252,4,8.908,6.168,13.429-1.749,2.328-2.808,3.671-2.808,3.671a.138.138,0,0,0,.046.09c-1.381,1.791-2.946,3.715-4.557,5.6-5.887,6.8-12.888,14.593-13.809,16.831-1.1,2.641-.829,4.611,1.289,6.133,1.565,1.164,4.327,1.343,7.222,1.119a32.662,32.662,0,0,0,10.817-2.417,38.219,38.219,0,0,0,9.293-4.745c5.754-4.118,9.252-10.027,8.93-17.816a36.26,36.26,0,0,0-3.36-12.623c.506-.716,1.059-1.477,1.565-2.238a236.292,236.292,0,0,0,16.152-27.135,88.017,88.017,0,0,0,2.854,11.549c1.1,3.626,3.264,7.61,5.243,11.5-8.557,6.759-13.85,14.593-15.692,19.74-3.406,9.534-.736,13.832,4.281,14.816,2.255.448,5.478-.582,7.871-1.567a36.964,36.964,0,0,0,9.938-4.969c5.754-4.118,11.319-9.893,10.951-17.726a32.536,32.536,0,0,0-2.486-10.475c7.227-2.954,16.612-4.566,28.58-3.223,25.629,2.91,30.647,18.487,29.68,24.978s-6.352,10.116-8.147,11.191-2.348,1.477-2.209,2.283c.23,1.164,1.059,1.119,2.578.85,2.117-.358,13.436-5.282,13.942-17.323.736-15.219-14.311-31.961-40.967-31.826ZM56.059,191.405c-8.465,9-20.341,12.4-25.445,9.534-5.478-3.1-3.314-16.338,7.13-25.927a136.192,136.192,0,0,1,19.972-14.5c1.243-.716,3.038-1.791,5.247-3.089.368-.224.552-.313.552-.313.414-.269.875-.492,1.335-.761,3.816,13.608.138,25.6-8.792,35.049ZM117.9,150.492c-2.946,7.028-9.155,24.933-12.93,23.993-3.222-.806-5.2-14.458-.644-27.887,2.3-6.759,7.181-14.816,10.081-17.95,4.644-5.058,9.754-6.67,10.951-4.655C126.973,126.634,119.746,146.105,117.9,150.492ZM169,174.216c-1.243.627-2.394,1.03-2.946.716-.414-.224.506-1.074.506-1.074s6.4-6.67,8.93-9.714c1.473-1.791,3.176-3.894,5.013-6.222,0,.224.046.448.046.716-.06,8.013-7.972,13.429-11.563,15.577Zm39.392-8.729c-.921-.627-.783-2.731,2.3-9.266a34.9,34.9,0,0,1,8.746-10.967,15.8,15.8,0,0,1,.875,4.834c-.046,10.072-7.457,13.832-11.917,15.4Z" transform="translate(-0.001 -3.126)"/>
</svg>
